<?xml version="1.0" standalone="no"?>
<!DOCTYPE svg PUBLIC "-//W3C//DTD SVG 20010904//EN"
 "http://www.w3.org/TR/2001/REC-SVG-20010904/DTD/svg10.dtd">
<svg version="1.0" xmlns="http://www.w3.org/2000/svg"
 width="834.000000pt" height="834.000000pt" viewBox="0 0 834.000000 834.000000"
 preserveAspectRatio="xMidYMid meet">
<metadata>
Created by potrace 1.14, written by Peter Selinger 2001-2017
</metadata>
<g transform="translate(0.000000,834.000000) scale(0.100000,-0.100000)"
fill="#000000" stroke="none">
<path d="M3945 6794 c-697 -55 -1294 -341 -1762 -847 -450 -485 -704 -1172
-680 -1835 7 -180 9 -173 -63 -239 -19 -18 -114 -95 -210 -171 -455 -362 -789
-692 -962 -952 -39 -58 -76 -108 -83 -113 -8 -4 -16 -21 -20 -37 -4 -16 -11
-32 -16 -35 -5 -4 -9 -43 -9 -87 0 -121 35 -166 159 -202 82 -24 340 -22 501
4 253 41 636 148 1004 280 105 38 196 70 202 72 6 2 39 -33 74 -77 78 -99 278
-299 384 -385 462 -374 1045 -580 1641 -580 515 0 1015 151 1439 434 169 113
259 187 411 340 349 351 586 785 695 1276 97 436 71 947 -70 1368 l-28 84 66
46 c372 266 721 545 1071 859 l46 41 6 -31 c3 -18 4 -99 1 -182 -3 -102 -1
-147 6 -140 7 7 399 636 456 733 9 16 -33 -6 -74 -37 -14 -11 -160 -63 -325
-116 -228 -73 -323 -99 -395 -107 -114 -14 -107 -16 128 -48 94 -13 172 -28
172 -34 0 -68 -842 -640 -1645 -1118 -980 -583 -2189 -1210 -3100 -1608 -677
-295 -1236 -486 -1608 -550 -145 -24 -279 -27 -301 -5 -8 8 -26 15 -41 15 -61
0 -147 64 -158 119 -24 118 161 375 512 712 85 82 156 147 159 145 2 -2 17
-64 33 -138 32 -147 76 -294 120 -406 52 -130 132 -292 144 -292 7 0 77 22
156 49 307 105 615 226 1004 396 926 404 2230 1086 3200 1673 132 79 252 152
267 161 16 9 28 22 28 29 0 20 -96 205 -158 306 -141 229 -380 499 -582 660
-192 153 -472 315 -690 399 -180 70 -407 127 -610 153 -116 15 -402 25 -495
18z m-300 -994 c44 -10 94 -26 110 -34 17 -9 35 -16 40 -16 6 0 24 -14 42 -30
18 -17 35 -30 38 -30 9 0 57 -58 76 -91 9 -16 21 -35 27 -42 22 -26 44 -157
38 -225 -5 -63 -12 -117 -16 -117 -1 0 -3 -7 -5 -16 -5 -27 -58 -143 -72 -157
-7 -7 -13 -17 -13 -22 0 -5 -6 -15 -12 -22 -7 -7 -20 -22 -28 -32 -13 -18 -13
-19 0 -11 8 5 -3 -8 -24 -28 -22 -20 -37 -37 -33 -37 3 0 -5 -11 -19 -25 -14
-14 -28 -25 -32 -25 -4 0 -24 -18 -44 -40 -21 -22 -55 -49 -75 -60 -21 -11
-63 -34 -93 -51 -30 -16 -82 -39 -115 -50 -33 -12 -69 -25 -80 -30 -54 -22
-219 -31 -300 -15 -76 14 -234 98 -235 124 0 6 -5 12 -10 12 -16 0 -75 99 -93
156 -32 98 -28 242 9 350 9 26 17 55 19 67 3 11 11 27 18 36 8 9 17 23 21 31
37 82 151 209 254 283 76 55 177 107 207 107 8 0 15 4 15 8 0 5 6 9 13 10 6 0
32 6 57 12 119 32 208 34 315 10z"/>
</g>
</svg>
